<svg width="396" height="111.53456854974625" viewBox="0 0 369.5454545454545 104.08356775819983" class="looka-1j8o68f"><defs id="SvgjsDefs3603"></defs><g id="SvgjsG3604" featurekey="symbolFeature-0" transform="matrix(1.3056470155715942,0,0,1.3056470155715942,-17.768549811217788,-13.356767850948048)" fill="#f08400"><g xmlns="http://www.w3.org/2000/svg"><path fill-rule="evenodd" clip-rule="evenodd" d="M80.11,49.695c0.003,5.951,1.481,10.771,3.303,10.771   c1.823,0,3.302-4.824,3.305-10.768c-0.003-5.951-1.479-10.773-3.303-10.773C81.591,38.926,80.107,43.748,80.11,49.695z"></path><path fill-rule="evenodd" clip-rule="evenodd" d="M39.138,14.154c-15.075,6.26-25.529,19.93-25.529,35.779   c-0.004,15.852,10.454,29.52,25.536,35.777C30.504,78.232,24.764,65,24.764,49.934S30.508,21.637,39.138,14.154z"></path><path fill-rule="evenodd" clip-rule="evenodd" d="M49.349,10.23c-7.066,0-12.803,17.854-12.803,39.857   c0,22.016,5.736,39.859,12.808,39.861c3.491-0.002,6.66-4.367,8.969-11.438c1.954,4.756,4.414,7.598,7.084,7.598   c6.367,0.002,11.532-16.066,11.527-35.883c0.005-19.816-5.156-35.887-11.521-35.879c-2.651,0-5.093,2.797-7.041,7.484   C56.057,14.668,52.871,10.234,49.349,10.23z M75.225,50.227c0.005,11.121-2.764,20.143-6.174,20.143   c-3.412,0-6.176-9.023-6.176-20.139c0-11.127,2.764-20.146,6.176-20.15C72.465,30.084,75.229,39.102,75.225,50.227z M57.792,23.318   c-2.395,6.576-3.907,16.191-3.907,26.908c-0.001,10.623,1.484,20.166,3.841,26.736c-1.15,1.559-2.418,2.424-3.748,2.424   c-5.202-0.004-9.414-13.117-9.414-29.299c0-16.174,4.212-29.293,9.407-29.293C55.333,20.797,56.626,21.701,57.792,23.318z"></path></g></g><g id="SvgjsG3605" featurekey="nameFeature-0" transform="matrix(1.153877854347229,0,0,1.153877854347229,114.3076749987842,5.70765752177729)" fill="#393e46"><path d="M18.12 24.04 c1.48 -3.16 1.08 -5.8 -3.68 -6.8 c-1.4 -0.32 -2.8 -0.08 -4.2 0.04 l0.16 15.32 c3.16 -2.28 6.32 -5.56 7.72 -8.56 z M25.88 19.32 c0.88 9.92 -11.04 19.36 -17.68 22.68 c-0.56 -0.56 -2.48 -1.04 -2.48 -1.04 l-0.4 -2.36 l-1.6 -0.36 l-0.4 -20.24 l-2.4 0.32 l0.8 -2.16 l-1.08 -1.36 l0.92 -1.68 l-0.96 -1.92 c3.92 -0.64 10.16 -1.36 15.2 -0.68 c4.96 0.64 9.56 2.84 10.08 8.8 z M48.64 22.32 c-0.76 -4.56 -3.64 -6.16 -7.84 -3.92 c-6.92 3.68 -7.72 10.64 -5.48 13.56 c2.16 2.8 5.68 2.36 8.16 0.84 c4.28 -2.64 5.76 -6.92 5.16 -10.48 z M55.6 19.8 c1.4 8.72 -2.72 15.24 -5.6 17.36 c-9.2 6.76 -16.72 4.56 -20.84 -1.56 c-4.64 -6.92 0.2 -21.28 11.64 -24.92 c1.24 -0.4 3.4 -0.64 5.56 -0.44 l0.44 1.92 l0.88 -0.16 l0.76 0.64 l0.56 -1.44 c3.56 1.84 5.92 4.48 6.6 8.6 z M75.16 36.28 l0.16 2.68 l-14.52 2.48 l-0.24 -2.16 l-2.08 0 l0.28 -28.52 l2.08 0.48 l2.32 -1.72 l2.6 1.2 l-0.16 22.56 l8.32 -1.2 l1.2 1.8 l-0.8 1.68 z M100.84 34.64 l0.76 2.28 c-9.72 7.08 -20.48 5.76 -23.4 -1.64 c-3.04 -7.84 3.28 -21.48 14.96 -26.64 l1 1.44 l2.04 -0.2 l1.92 1.56 l-0.72 12.04 l-1.92 0.64 l-1.36 -0.52 l-1.24 0.96 l-2.48 -0.36 l0.32 -5.88 c-5.28 5 -7.24 10.68 -6.16 14.08 c0.92 2.88 7.12 2.92 12.76 -1.08 l2.24 0.92 l-0.36 2.08 z M107.64000000000001 10.48 l2.4 -0.12 l-0.2 29.96 l-2.2 1.6 l-2.64 -1.76 l-2.16 1.24 l0.2 -30.6 l2.2 -1.44 l1.48 1.6 z M141.08 23.08 c4.92 -3.2 2.96 -7 -2.8 -6.52 c-0.48 0.04 -1.04 0.08 -1.68 0.12 l0.32 9.08 c1.4 -0.88 2.76 -1.76 4.16 -2.68 z M145.68 28.48 l4.96 10.56 l-1.68 1.76 l-2.72 0 l-1.6 1.92 l-4.88 -10.32 c-0.84 0.48 -1.68 0.92 -2.56 1.36 l0.24 6.88 l-2.12 -0.04 l-1.44 1.12 l-1.48 -1.4 l-1.96 1.04 l-0.8 -24.04 l-2 0.2 l0.88 -2.44 l-1.32 -1.68 l0.68 -1.04 l-0.84 -1.76 s7.84 -1.08 11.64 -1.04 c4.52 0.04 9.6 0.76 11.68 5.64 c2.24 5.4 -0.28 9.72 -4.68 13.28 z M173.12 37.8 l0.92 1.76 l-16.24 2.52 l-0.24 -1.72 l-1.8 0.04 l0.28 -1.8 l-1.92 -0.08 l0.6 -18.52 l-2 0 l0.96 -1.8 l-1 -1.16 l0.6 -1.36 l-0.4 -1.84 l18.64 -0.84 l0.68 2.84 l-1.12 1.12 l0.92 2.32 l-10.24 0.44 l-0.16 4.88 l9.32 -1 l-0.88 2.32 l1.4 1.12 l-0.76 2.88 l-9.28 1.04 l-0.12 4.12 l12.16 -1.8 l-0.8 2.08 l1.24 1.12 z M164.48000000000002 1.240000000000002 l7.12 5.92 l-1.08 2.32 l-1.6 0.04 l-0.72 2.08 l-5.36 -4.44 l-4.64 4.08 l-2.56 -1.08 l0.28 -1.64 l-2.24 -0.76 l7.48 -6.64 l1.72 0.96 z M194.88 11.68 l3.04 -0.88 l-7.36 28.72 l-1.72 1.52 l-1.4 -1.16 l-1.04 1.6 l-2.4 -1.2 l-1.76 1.36 l-8.56 -30.88 l2.04 0.64 l0.84 -1.56 l2.04 0.48 l2.24 -0.68 l5.08 19.12 l4.84 -18.76 l2.48 -0.52 z M207.32 28.52 l3.24 -0.32 l-1.64 -6.24 z M212.95999999999998 9.68 l8.24 30.88 l-2 -0.12 l-0.92 1.12 l-2.16 -1.16 l-1.88 1.64 l-1.88 -7 l-6.8 0.72 l-1.36 5.6 l-2.68 0.24 l-2 -1.4 l-2.44 0.52 l5.72 -23.32 l-2.72 0.16 l0.32 -2 l-0.96 -1.4 l1 -1.76 l-1.6 -1.72 z"></path></g><g id="SvgjsG3606" featurekey="sloganFeature-0" transform="matrix(1.574122428894043,0,0,1.574122428894043,120.99999943704994,66.53121936110743)" fill="#393e46"><path d="M4.26 19.92 l-2.1 -7.88 l-0.3 0.5 l0 7.44 l-1.86 0 l0 -14.26 l1.86 0 l0 3.1 l1.24 -3.1 l2.3 0 l-1.9 4.12 l2.7 10.08 l-1.94 0 z M11.635 5.68 l0 14.24 l-1.9 0 l0 -14.24 l1.9 0 z M19.87 10.62 l0 1.88 l-2.82 0 l0 7.46 l-1.88 0 l0 -14.24 l4.66 0 l0 1.9 l-2.78 0 l0 3 l2.82 0 z M28.105 10.62 l0 1.88 l-2.82 0 l0 7.46 l-1.88 0 l0 -14.24 l4.66 0 l0 1.9 l-2.78 0 l0 3 l2.82 0 z M36.3 12.46 l-2.76 0 l0 5.64 l2.78 0 l0 1.9 l-4.68 0 l0 -14.28 l4.68 0 l0 1.9 l-2.78 0 l0 2.94 l2.76 0 l0 1.9 z M45.33500000000001 20.04 l-2.04 0 l-1.1 -3.02 l-0.44 0 l0 3.02 l-1.9 0 l0 -14.32 l2.98 0 c1.32 0 2.38 1.06 2.38 2.38 l0 6.54 c0 0.86 -0.44 1.6 -1.12 2.02 z M41.755 7.619999999999999 l0 7.5 l1.08 0 c0.26 0 0.48 -0.22 0.48 -0.48 l0 -6.54 c0 -0.26 -0.22 -0.48 -0.48 -0.48 l-1.08 0 z M57.285000000000004 18.12 l2.76 0 l0 1.88 l-4.64 0 l0 -14.36 l1.88 0 l0 12.48 z M65.02 8.34 l-0.18 0 l-0.36 -1.04 l-0.9 0 l0 -1.58 l1.44 0 l0 2.62 z M70.455 5.68 l0 14.24 l-1.9 0 l0 -14.24 l1.9 0 z M78.63 16.72 l0.08 -11.08 l1.92 0 l-0.12 14.44 l-2.98 0 l-1.62 -11.18 l0 11.18 l-1.92 0 l0 -14.44 l3.1 0 z M86.90499999999999 20.12 c-1.52 0 -2.74 -1.24 -2.74 -2.74 l0 -2.18 l1.94 0 l0 2.18 c0 0.44 0.36 0.8 0.8 0.8 s0.78 -0.36 0.78 -0.8 l0 -1.9 l-3.52 -4.86 l0 -2.48 c0 -1.52 1.22 -2.76 2.74 -2.76 c1.5 0 2.72 1.24 2.72 2.76 l0 2.16 l-1.94 0 l0 -2.16 c0 -0.46 -0.34 -0.8 -0.78 -0.8 s-0.8 0.34 -0.8 0.8 l0 1.82 l3.52 4.86 l0 2.56 c0 1.5 -1.22 2.74 -2.72 2.74 z M99.46 5.68 l0 1.92 l-2.38 0 l0 12.42 l-1.92 0 l0 -12.42 l-2.62 0 l0 -1.92 l6.92 0 z M106.815 20 l-0.72 -4.94 l-2.02 0 l-0.66 4.94 l-1.92 0 l2.16 -14.3 l2.58 0 l2.5 14.3 l-1.92 0 z M104.335 13.16 l1.48 0 l-0.76 -5.2 z M116.91 16.72 l0.08 -11.08 l1.92 0 l-0.12 14.44 l-2.98 0 l-1.62 -11.18 l0 11.18 l-1.92 0 l0 -14.44 l3.1 0 z M129.36499999999998 5.68 l0 1.92 l-2.38 0 l0 12.42 l-1.92 0 l0 -12.42 l-2.62 0 l0 -1.92 l6.92 0 z"></path></g></svg>